<?xml version="1.0" encoding="iso-8859-1"?>
<!-- Generator: Adobe Illustrator 15.0.2, SVG Export Plug-In . SVG Version: 6.00 Build 0)  -->
<!DOCTYPE svg PUBLIC "-//W3C//DTD SVG 1.1//EN" "http://www.w3.org/Graphics/SVG/1.1/DTD/svg11.dtd">
<svg version="1.1" id="Layer_1" xmlns="http://www.w3.org/2000/svg" xmlns:xlink="http://www.w3.org/1999/xlink" x="0px" y="0px"
	 width="114px" height="114px" viewBox="0 0 114 114" style="enable-background:new 0 0 114 114;" xml:space="preserve">
<rect style="fill:#150958;" width="114" height="114"/>
<g>
	<path style="fill:#150958;" d="M56.998,25.632l0.001,12.626l-10.922,6.215v18.695l-11.121,6.363l0.012-31.273L56.998,25.632z
		 M89.963,31.85l0.016,31.465l-21.92,12.551l-11.058-6.334l22.038-12.436v-18.84L89.963,31.85z M67.93,100.994l11.117-6.217V82.156
		l-11.109,6.217L67.93,100.994z"/>
	<path style="fill:#FFFFFF;" d="M24.022,31.848l32.972-18.844l32.971,18.844l-10.926,6.408L56.998,25.632L34.949,38.254
		L24.022,31.848z M67.922,50.684l11.117,6.412l-22.04,12.436L79.033,82.15l-11.111,6.219L34.959,69.531L67.922,50.684z"/>
	<path style="fill:#27AAE1;" d="M67.93,100.994L24.022,75.936V31.85l10.931,6.408l0.006,31.275l32.964,18.842L67.93,100.994z
		 M56.998,25.632l22.041,12.624v18.842l-11.117-6.406v-6.219l-10.923-6.215L56.998,25.632z"/>
</g>
</svg>
